<mxfile host="app.diagrams.net" agent="Mozilla/5.0 (X11; Ubuntu; Linux x86_64; rv:137.0) Gecko/20100101 Firefox/137.0" version="26.2.14">
  <diagram name="Page-1" id="IFXmj1nf29KCO2z2vWK3">
    <mxGraphModel dx="1237" dy="703" grid="1" gridSize="10" guides="1" tooltips="1" connect="1" arrows="1" fold="1" page="1" pageScale="1" pageWidth="850" pageHeight="1100" math="0" shadow="0">
      <root>
        <mxCell id="0" />
        <mxCell id="1" parent="0" />
        <mxCell id="yn2adQLre0F1ju3FVmCe-1" value="&lt;h1 align=&quot;left&quot;&gt;Linux&lt;/h1&gt;" style="rounded=0;whiteSpace=wrap;html=1;align=left;verticalAlign=top;spacingLeft=18;" parent="1" vertex="1">
          <mxGeometry x="40" y="20" width="770" height="750" as="geometry" />
        </mxCell>
        <mxCell id="yn2adQLre0F1ju3FVmCe-2" value="&lt;h2&gt;Kubernetes Cluster&lt;/h2&gt;" style="rounded=0;whiteSpace=wrap;html=1;verticalAlign=top;align=left;spacingLeft=20;" parent="1" vertex="1">
          <mxGeometry x="115" y="100" width="620" height="600" as="geometry" />
        </mxCell>
        <mxCell id="yn2adQLre0F1ju3FVmCe-3" value="&lt;h3&gt;Kubernetes Pod&lt;/h3&gt;" style="rounded=0;whiteSpace=wrap;html=1;verticalAlign=top;align=left;spacingLeft=20;" parent="1" vertex="1">
          <mxGeometry x="130" y="160" width="590" height="520" as="geometry" />
        </mxCell>
        <mxCell id="yn2adQLre0F1ju3FVmCe-5" value="MongoDB Container" style="rounded=0;whiteSpace=wrap;html=1;" parent="1" vertex="1">
          <mxGeometry x="425" y="250" width="120" height="60" as="geometry" />
        </mxCell>
        <mxCell id="-stHyc5ohFjhtxXzgKyk-8" style="edgeStyle=orthogonalEdgeStyle;rounded=0;orthogonalLoop=1;jettySize=auto;html=1;entryX=0.5;entryY=1;entryDx=0;entryDy=0;exitX=0.5;exitY=0;exitDx=0;exitDy=0;" edge="1" parent="1" source="yn2adQLre0F1ju3FVmCe-6" target="-stHyc5ohFjhtxXzgKyk-2">
          <mxGeometry relative="1" as="geometry" />
        </mxCell>
        <mxCell id="yn2adQLre0F1ju3FVmCe-6" value="&lt;div&gt;Temperature_Sensor.py Container&lt;/div&gt;" style="rounded=0;whiteSpace=wrap;html=1;" parent="1" vertex="1">
          <mxGeometry x="210" y="590" width="130" height="60" as="geometry" />
        </mxCell>
        <mxCell id="yn2adQLre0F1ju3FVmCe-7" value="Motion_Sensor.py&lt;br&gt;&lt;div&gt;Container&lt;/div&gt;" style="rounded=0;whiteSpace=wrap;html=1;" parent="1" vertex="1">
          <mxGeometry x="347" y="590" width="110" height="60" as="geometry" />
        </mxCell>
        <mxCell id="-stHyc5ohFjhtxXzgKyk-10" style="edgeStyle=orthogonalEdgeStyle;rounded=0;orthogonalLoop=1;jettySize=auto;html=1;entryX=0.5;entryY=1;entryDx=0;entryDy=0;exitX=0.5;exitY=0;exitDx=0;exitDy=0;" edge="1" parent="1" source="yn2adQLre0F1ju3FVmCe-8" target="-stHyc5ohFjhtxXzgKyk-2">
          <mxGeometry relative="1" as="geometry" />
        </mxCell>
        <mxCell id="yn2adQLre0F1ju3FVmCe-8" value="Humidity_Sensor.py&lt;br&gt;Container" style="rounded=0;whiteSpace=wrap;html=1;" parent="1" vertex="1">
          <mxGeometry x="470" y="590" width="120" height="60" as="geometry" />
        </mxCell>
        <mxCell id="yn2adQLre0F1ju3FVmCe-9" value="&lt;div&gt;MySQL Container&lt;/div&gt;" style="rounded=0;whiteSpace=wrap;html=1;" parent="1" vertex="1">
          <mxGeometry x="260" y="250" width="120" height="60" as="geometry" />
        </mxCell>
        <mxCell id="yn2adQLre0F1ju3FVmCe-10" value="Kafka" style="rounded=0;whiteSpace=wrap;html=1;align=left;verticalAlign=top;spacingLeft=8;" parent="1" vertex="1">
          <mxGeometry x="317" y="360" width="173" height="140" as="geometry" />
        </mxCell>
        <mxCell id="-stHyc5ohFjhtxXzgKyk-4" style="edgeStyle=orthogonalEdgeStyle;rounded=0;orthogonalLoop=1;jettySize=auto;html=1;entryX=0.5;entryY=1;entryDx=0;entryDy=0;" edge="1" parent="1" source="-stHyc5ohFjhtxXzgKyk-2" target="-stHyc5ohFjhtxXzgKyk-3">
          <mxGeometry relative="1" as="geometry" />
        </mxCell>
        <mxCell id="-stHyc5ohFjhtxXzgKyk-2" value="Producer" style="rounded=0;whiteSpace=wrap;html=1;" vertex="1" parent="1">
          <mxGeometry x="367" y="440" width="70" height="30" as="geometry" />
        </mxCell>
        <mxCell id="-stHyc5ohFjhtxXzgKyk-6" style="edgeStyle=orthogonalEdgeStyle;rounded=0;orthogonalLoop=1;jettySize=auto;html=1;entryX=0.5;entryY=1;entryDx=0;entryDy=0;" edge="1" parent="1" source="-stHyc5ohFjhtxXzgKyk-3" target="yn2adQLre0F1ju3FVmCe-9">
          <mxGeometry relative="1" as="geometry" />
        </mxCell>
        <mxCell id="-stHyc5ohFjhtxXzgKyk-7" style="edgeStyle=orthogonalEdgeStyle;rounded=0;orthogonalLoop=1;jettySize=auto;html=1;entryX=0.5;entryY=1;entryDx=0;entryDy=0;" edge="1" parent="1" source="-stHyc5ohFjhtxXzgKyk-3" target="yn2adQLre0F1ju3FVmCe-5">
          <mxGeometry relative="1" as="geometry" />
        </mxCell>
        <mxCell id="-stHyc5ohFjhtxXzgKyk-3" value="Consumer" style="rounded=0;whiteSpace=wrap;html=1;" vertex="1" parent="1">
          <mxGeometry x="367" y="382.5" width="70" height="25" as="geometry" />
        </mxCell>
        <mxCell id="-stHyc5ohFjhtxXzgKyk-9" style="edgeStyle=orthogonalEdgeStyle;rounded=0;orthogonalLoop=1;jettySize=auto;html=1;entryX=0.5;entryY=1;entryDx=0;entryDy=0;" edge="1" parent="1" source="yn2adQLre0F1ju3FVmCe-7" target="-stHyc5ohFjhtxXzgKyk-2">
          <mxGeometry relative="1" as="geometry" />
        </mxCell>
      </root>
    </mxGraphModel>
  </diagram>
</mxfile>
